<?xml version="1.0" encoding="UTF-8"?>
<svg version="1.1" xmlns="http://www.w3.org/2000/svg" width="273" height="347">
<path d="M0 0 C90.09 0 180.18 0 273 0 C273 114.51 273 229.02 273 347 C182.91 347 92.82 347 0 347 C0 232.49 0 117.98 0 0 Z " fill="#FDFDFD" transform="translate(0,0)"/>
<path d="M0 0 C2.31 0 4.62 0 7 0 C7.07002014 3.99114793 7.06104125 7.61340542 6.4375 11.5625 C5.84298885 14.97283159 5.84298885 14.97283159 6.5 18.25 C7.16967857 23.27258925 6.58903916 27.98863606 6 33 C6.66 33 7.32 33 8 33 C7.938125 33.845625 7.87625 34.69125 7.8125 35.5625 C8.0343221 39.62923846 9.31593219 42.30800519 11 46 C13 52.42105263 13 52.42105263 13 55 C13.66 55.33 14.32 55.66 15 56 C14.67 56.66 14.34 57.32 14 58 C14.66 58 15.32 58 16 58 C16.268125 58.763125 16.53625 59.52625 16.8125 60.3125 C17.79067356 62.9636499 17.79067356 62.9636499 19.4375 64.4375 C21.62239132 66.62239132 22.62649268 69.25298536 24 72 C24.66 72.33 25.32 72.66 26 73 C26 73.66 26 74.32 26 75 C26.66 75 27.32 75 28 75 C28.33 76.32 28.66 77.64 29 79 C29.66 79 30.32 79 31 79 C32.68997323 80.64302953 34.35216394 82.31471312 36 84 C39.74517513 87.36064008 39.74517513 87.36064008 44 90 C44 90.66 44 91.32 44 92 C45.65 92.33 47.3 92.66 49 93 C49 93.66 49 94.32 49 95 C50.423125 95.2165625 50.423125 95.2165625 51.875 95.4375 C55 96 55 96 57 97 C57 97.66 57 98.32 57 99 C58.41152344 99.18175781 58.41152344 99.18175781 59.8515625 99.3671875 C61.09679687 99.53476563 62.34203125 99.70234375 63.625 99.875 C64.85476562 100.03742188 66.08453125 100.19984375 67.3515625 100.3671875 C71 101 71 101 73.7890625 102.06640625 C78.45037751 103.42170344 82.92615811 103.17138289 87.75 103.0625 C89.64055013 103.02814949 91.53118254 102.99798993 93.421875 102.97265625 C94.25299805 102.95468994 95.08412109 102.93672363 95.94042969 102.91821289 C98 103 98 103 100 104 C100 103.34 100 102.68 100 102 C105.33333333 100.66666667 110.66666667 99.33333333 116 98 C116.65774414 97.81493896 117.31548828 97.62987793 117.99316406 97.43920898 C120 97 120 97 124 97 C124.020625 96.401875 124.04125 95.80375 124.0625 95.1875 C125 93 125 93 128.25 91.625 C128.88421875 91.3878125 129.5184375 91.150625 130.171875 90.90625 C132.66405868 89.67080852 134.04090071 87.73864756 135.68359375 85.54296875 C137.59783261 83.29927632 139.923491 81.8653582 142.359375 80.234375 C144.66840951 78.49710141 146.24484277 76.27520381 148 74 C148.66 74 149.32 74 150 74 C150 72.68 150 71.36 150 70 C150.598125 69.814375 151.19625 69.62875 151.8125 69.4375 C155.02264417 67.32797669 155.57340686 64.50704148 157 61 C157.928125 59.88625 157.928125 59.88625 158.875 58.75 C162.06551085 54.62110361 164.26539497 49.91867453 166 45 C165.67 44.34 165.34 43.68 165 43 C166.32 43.33 167.64 43.66 169 44 C169.28326814 50.54579092 168.26668131 56.22315039 166.6875 62.5625 C166.47416016 63.46935547 166.26082031 64.37621094 166.04101562 65.31054688 C164.78700405 70.47258259 163.25115977 75.1874033 161 80 C160.34 80 159.68 80 159 80 C158.67 80.99 158.34 81.98 158 83 C157.34 83 156.68 83 156 83 C155.67 83.99 155.34 84.98 155 86 C153.29296875 87.53515625 153.29296875 87.53515625 151.1875 89.0625 C150.50042969 89.56910156 149.81335938 90.07570313 149.10546875 90.59765625 C147.12582747 91.91619283 145.15051741 92.98998171 143 94 C143 94.66 143 95.32 143 96 C134.738041 100.40774487 134.738041 100.40774487 130 101 C129.67 101.99 129.34 102.98 129 104 C126.67065875 105.1398904 124.41664373 106.08228719 122 107 C120.79150391 107.49886719 120.79150391 107.49886719 119.55859375 108.0078125 C114.76470923 109.98391757 110.03987441 111.7400314 105 113 C104.22914063 113.19722656 103.45828125 113.39445312 102.6640625 113.59765625 C97.63213233 114.76661234 93.52117509 115.07254393 88.42578125 114.28515625 C85.52956167 113.94469888 82.72707787 114.00140527 79.8125 114.0625 C75.3997917 114.10718565 72.13550667 113.63496775 68 112 C66.96875 111.896875 65.9375 111.79375 64.875 111.6875 C60.07586572 110.83604069 56.01563709 109.02574642 51.57421875 107.05859375 C49.1556131 105.87322458 49.1556131 105.87322458 47 106 C47 105.34 47 104.68 47 104 C46.29875 103.9175 45.5975 103.835 44.875 103.75 C41.31472462 102.82123251 38.92969448 101.19727086 36 99 C35.67 98.34 35.34 97.68 35 97 C34.01 96.67 33.02 96.34 32 96 C31.3125 93.9375 31.3125 93.9375 31 92 C30.01 92 29.02 92 28 92 C28 91.34 28 90.68 28 90 C27.01 90 26.02 90 25 90 C25 89.34 25 88.68 25 88 C23.515 87.505 23.515 87.505 22 87 C20.09765625 84.671875 20.09765625 84.671875 18.0625 81.75 C16.05486235 78.88747233 14.06408207 76.0786727 11.85546875 73.3671875 C8.92577204 69.62951127 7 65.84007165 7 61 C6.34 61 5.68 61 5 61 C4.87625 60.360625 4.7525 59.72125 4.625 59.0625 C4.41875 58.381875 4.2125 57.70125 4 57 C3.34 56.67 2.68 56.34 2 56 C1.58244638 53.68025766 1.2644354 51.34214207 1 49 C0.814375 47.700625 0.62875 46.40125 0.4375 45.0625 C0.293125 44.051875 0.14875 43.04125 0 42 C-0.66 42 -1.32 42 -2 42 C-2.20014682 37.91718651 -2.3827259 33.83375724 -2.5625 29.75 C-2.61857422 28.61046875 -2.67464844 27.4709375 -2.73242188 26.296875 C-3.58794149 6.22068145 -3.58794149 6.22068145 0 0 Z " fill="#2B4C5C" transform="translate(50,111)"/>
<path d="M0 0 C0.99 0.99 0.99 0.99 2 2 C-0.89867382 6.12503582 -3.4501959 7.91467312 -8 10 C-11.4359968 12.22739561 -11.4359968 12.22739561 -13 16 C-14.65 16 -16.3 16 -18 16 C-18 16.99 -18 17.98 -18 19 C-19.65 19 -21.3 19 -23 19 C-23 19.99 -23 20.98 -23 22 C-23.9075 22.2475 -24.815 22.495 -25.75 22.75 C-29.13982455 24.05377867 -30.52663186 25.4413433 -33 28 C-33.99 28 -34.98 28 -36 28 C-36 28.66 -36 29.32 -36 30 C-36.99 30.495 -36.99 30.495 -38 31 C-38.65213292 33.02463255 -38.65213292 33.02463255 -39 35 C-39.99 35 -40.98 35 -42 35 C-42 35.66 -42 36.32 -42 37 C-42.9590625 37.1546875 -42.9590625 37.1546875 -43.9375 37.3125 C-44.618125 37.539375 -45.29875 37.76625 -46 38 C-46.33 38.99 -46.66 39.98 -47 41 C-47.66 41 -48.32 41 -49 41 C-49 42.32 -49 43.64 -49 45 C-50.98 45.495 -50.98 45.495 -53 46 C-53.020625 47.155 -53.04125 48.31 -53.0625 49.5 C-53.63849138 54.3112221 -55.96219723 56.59182711 -59.2265625 59.99609375 C-61.38160505 62.4311969 -62.66837238 64.89382355 -63.98046875 67.84765625 C-65 70 -65 70 -66.97265625 73.16796875 C-69.37692272 77.33118391 -70.3140221 81.57011048 -71.25 86.25 C-71.42273438 87.05179687 -71.59546875 87.85359375 -71.7734375 88.6796875 C-72.44679594 91.87546803 -73 94.72188317 -73 98 C-73.66 98 -74.32 98 -75 98 C-75.33 101.3 -75.66 104.6 -76 108 C-79.63 108 -83.26 108 -87 108 C-86.85833643 106.08302063 -86.71150416 104.16642277 -86.5625 102.25 C-86.48128906 101.18265625 -86.40007812 100.1153125 -86.31640625 99.015625 C-86.05674796 96.5408571 -85.65788203 94.38482237 -85 92 C-84.63526254 90.31475318 -84.28153511 88.62709466 -83.9375 86.9375 C-83.76089844 86.08027344 -83.58429688 85.22304687 -83.40234375 84.33984375 C-82.91526694 81.90292931 -82.91526694 81.90292931 -83 79 C-82.34 79 -81.68 79 -81 79 C-80.9175 78.360625 -80.835 77.72125 -80.75 77.0625 C-79.69950838 72.77299255 -77.86658916 68.99273361 -76 65 C-75.39308427 63.69407775 -74.78632513 62.38808271 -74.1796875 61.08203125 C-72.45981349 57.3848693 -70.73155125 53.69170617 -69 50 C-68.34 50 -67.68 50 -67 50 C-66.67 48.68 -66.34 47.36 -66 46 C-64.02 45.505 -64.02 45.505 -62 45 C-61.9071875 43.948125 -61.9071875 43.948125 -61.8125 42.875 C-60.69219429 38.91084133 -58.83933474 36.97783887 -56 34 C-55.34 34 -54.68 34 -54 34 C-53.67 33.01 -53.34 32.02 -53 31 C-51.68 31 -50.36 31 -49 31 C-48.6596875 29.8553125 -48.6596875 29.8553125 -48.3125 28.6875 C-46.70050543 25.38674921 -45.17465336 24.73850065 -42 23 C-41.319375 22.319375 -40.63875 21.63875 -39.9375 20.9375 C-38.00059328 19.00059328 -36.41652391 18.20826196 -34 17 C-32.9790625 15.9790625 -32.9790625 15.9790625 -31.9375 14.9375 C-30 13 -30 13 -27 12 C-26.67 11.34 -26.34 10.68 -26 10 C-20.77777778 8 -20.77777778 8 -18 8 C-17.67 7.34 -17.34 6.68 -17 6 C-14.9609375 5.25390625 -14.9609375 5.25390625 -12.375 4.5625 C-8.052733 3.34530987 -4.08136995 1.86323411 0 0 Z " fill="#91C845" transform="translate(110,16)"/>
<path d="M0 0 C0.97582031 0.144375 1.95164063 0.28875 2.95703125 0.4375 C4.22933594 0.623125 5.50164062 0.80875 6.8125 1 C8.70935547 1.2784375 8.70935547 1.2784375 10.64453125 1.5625 C13.93182508 2.06464492 13.93182508 2.06464492 17 2 C17 2.66 17 3.32 17 4 C17.9075 3.95875 18.815 3.9175 19.75 3.875 C22.8782046 3.99531556 24.38614006 4.3914708 27 6 C27 6.66 27 7.32 27 8 C27.9075 8.268125 28.815 8.53625 29.75 8.8125 C32.74369369 9.90634962 34.71640425 10.80423486 37 13 C37 13.99 37 14.98 37 16 C37.66 16 38.32 16 39 16 C39 16.99 39 17.98 39 19 C39.66 19 40.32 19 41 19 C41 19.66 41 20.32 41 21 C41.66 21 42.32 21 43 21 C43.103125 21.763125 43.20625 22.52625 43.3125 23.3125 C43.7343816 26.01737525 43.7343816 26.01737525 45.5 27.3125 C47.9188452 30.03370085 48.13555573 33.47555097 48 37 C47.67515625 37.80179688 47.3503125 38.60359375 47.015625 39.4296875 C45.89088288 42.27615024 45.82636494 44.20934478 45.9375 47.25 C46.16589862 60.25115207 46.16589862 60.25115207 43 65 C42.5359375 66.7325 42.5359375 66.7325 42.0625 68.5 C41.02737484 71.90982406 40.48199966 72.7338264 38 75 C37.28552357 77.10332891 37.28552357 77.10332891 37 79 C36.34 79 35.68 79 35 79 C35 79.66 35 80.32 35 81 C34.34 81 33.68 81 33 81 C33 81.66 33 82.32 33 83 C32.01 83.495 32.01 83.495 31 84 C30.505 85.485 30.505 85.485 30 87 C27.525 87.495 27.525 87.495 25 88 C25 88.66 25 89.32 25 90 C22.69 91.32 20.38 92.64 18 94 C18 93.01 18 92.02 18 91 C18.928125 90.5978125 18.928125 90.5978125 19.875 90.1875 C22.2995233 89.04443152 22.2995233 89.04443152 24 86 C24.70125 85.505 25.4025 85.01 26.125 84.5 C26.74375 84.005 27.3625 83.51 28 83 C28 82.01 28 81.02 28 80 C28.66 79.34 29.32 78.68 30 78 C30.33 77.175 30.66 76.35 31 75.5 C32 73 32 73 34 71 C34.16687448 68.41645782 34.16687448 68.41645782 34 66 C35.32 65.34 36.64 64.68 38 64 C37.98839844 63.38511719 37.97679687 62.77023438 37.96484375 62.13671875 C37.95582031 61.32847656 37.94679688 60.52023438 37.9375 59.6875 C37.92589844 58.88699219 37.91429687 58.08648437 37.90234375 57.26171875 C38 55 38 55 39 52 C38.4990792 44.18170675 37.56043903 37.43826687 33 31 C32.0409375 29.39125 32.0409375 29.39125 31.0625 27.75 C28.90008778 24.8667837 27.13379687 23.68742909 24 22 C22.1875 20.4375 22.1875 20.4375 21 19 C21 18.34 21 17.68 21 17 C20.360625 16.896875 19.72125 16.79375 19.0625 16.6875 C16.47447064 16.10651382 14.22471545 15.35630854 11.75 14.4375 C3.0680595 11.51968145 -5.18489529 13.32945562 -14 15 C-14 15.66 -14 16.32 -14 17 C-15.98 17.33 -17.96 17.66 -20 18 C-20 18.66 -20 19.32 -20 20 C-20.66 20 -21.32 20 -22 20 C-22.1546875 20.9590625 -22.1546875 20.9590625 -22.3125 21.9375 C-22.539375 22.618125 -22.76625 23.29875 -23 24 C-23.99 24.33 -24.98 24.66 -26 25 C-26.309375 25.61875 -26.61875 26.2375 -26.9375 26.875 C-28.20298687 29.40597375 -29.67272837 30.44848558 -32 32 C-31.53029274 29.8080328 -31.0204734 28.03733385 -29.9375 26.0625 C-28.80936076 23.58059367 -28.85022363 21.69597461 -29 19 C-28.34 19 -27.68 19 -27 19 C-26.731875 18.443125 -26.46375 17.88625 -26.1875 17.3125 C-23.63536874 12.34256018 -20.74788514 8.13228362 -17 4 C-16.34 4 -15.68 4 -15 4 C-15 3.34 -15 2.68 -15 2 C-12.03650719 1.01216906 -10.0287337 0.86589475 -6.9375 0.875 C-6.05964844 0.87242188 -5.18179688 0.86984375 -4.27734375 0.8671875 C-2 1 -2 1 0 2 C0 1.34 0 0.68 0 0 Z " fill="#2C4D5D" transform="translate(125,78)"/>
<path d="M0 0 C5.10893895 1.68702668 6.86240584 5.33335207 9.7109375 9.7265625 C10.93161321 11.54342476 12.15299724 13.35981128 13.375 15.17578125 C14.3326123 16.61703369 14.3326123 16.61703369 15.30957031 18.08740234 C17.41037554 21.21228685 19.56283951 24.29499023 21.734375 27.37109375 C22.45963379 28.39960449 23.18489258 29.42811523 23.93212891 30.48779297 C25.34678374 32.49191404 26.76307458 34.49488149 28.18115234 36.49658203 C28.8252002 37.41681152 29.46924805 38.33704102 30.1328125 39.28515625 C30.70354492 40.09525146 31.27427734 40.90534668 31.86230469 41.73999023 C33.35162479 44.12670219 34.37607033 46.46251378 35.3359375 49.1015625 C35.9959375 49.1015625 36.6559375 49.1015625 37.3359375 49.1015625 C37.33371689 48.51496353 37.33149628 47.92836456 37.32920837 47.32398987 C37.3071554 41.24130866 37.29203086 35.15863873 37.28100586 29.07592773 C37.27596425 26.80313659 37.26913113 24.5303487 37.26049805 22.25756836 C37.24842489 18.99852699 37.24270763 15.73952833 37.23828125 12.48046875 C37.23311996 11.45756241 37.22795868 10.43465607 37.22264099 9.38075256 C37.22256546 8.43985275 37.22248993 7.49895294 37.22241211 6.52954102 C37.2201915 5.69681168 37.21797089 4.86408234 37.21568298 4.00611877 C37.3359375 2.1015625 37.3359375 2.1015625 38.3359375 1.1015625 C40.8359375 0.9765625 40.8359375 0.9765625 43.3359375 1.1015625 C45.09111856 2.85674356 44.46354533 5.32505965 44.46533203 7.70703125 C44.46848419 8.90497314 44.47163635 10.10291504 44.47488403 11.3371582 C44.4728598 12.64128662 44.47083557 13.94541504 44.46875 15.2890625 C44.4694231 16.63045265 44.47039318 17.97184269 44.47164917 19.31323242 C44.47312586 22.12777871 44.47097254 24.94229332 44.46630859 27.75683594 C44.46061131 31.37196881 44.46389047 34.98702745 44.46988106 38.60215759 C44.47348747 41.37301192 44.47234772 44.14384852 44.46975327 46.91470337 C44.46875783 48.89845833 44.47180491 50.88221397 44.47488403 52.8659668 C44.47015579 54.66287964 44.47015579 54.66287964 44.46533203 56.49609375 C44.46453644 57.55675049 44.46374084 58.61740723 44.46292114 59.71020508 C44.3359375 62.1015625 44.3359375 62.1015625 43.3359375 63.1015625 C40.9921875 63.40234375 40.9921875 63.40234375 38.3359375 63.1015625 C36.5546875 61.58203125 36.5546875 61.58203125 34.8359375 59.2890625 C33.80533203 57.91621094 33.80533203 57.91621094 32.75390625 56.515625 C28.22791235 50.18114728 23.85517956 43.74105432 19.49853516 37.28955078 C14.46970114 29.87630687 9.39800375 22.49213794 4.3359375 15.1015625 C4.3204763 15.98146095 4.3204763 15.98146095 4.30470276 16.87913513 C4.19686556 22.9619412 4.08224994 29.04459224 3.96362305 35.12719727 C3.92020085 37.39995086 3.87853134 39.67273863 3.83862305 41.94555664 C3.78109631 45.20469482 3.71735198 48.46365981 3.65234375 51.72265625 C3.63563126 52.74556259 3.61891876 53.76846893 3.60169983 54.82237244 C3.58175461 55.76327225 3.56180939 56.70417206 3.54125977 57.67358398 C3.52571548 58.50631332 3.5101712 59.33904266 3.49415588 60.19700623 C3.3359375 62.1015625 3.3359375 62.1015625 2.3359375 63.1015625 C-0.1640625 63.2265625 -0.1640625 63.2265625 -2.6640625 63.1015625 C-4.43130061 61.33432439 -3.79169083 58.7983741 -3.79345703 56.40429688 C-3.79660919 55.18633423 -3.79976135 53.96837158 -3.80300903 52.71350098 C-3.80121925 51.37410445 -3.7991683 50.03470826 -3.796875 48.6953125 C-3.7975481 47.3315021 -3.79851817 45.96769182 -3.79977417 44.60388184 C-3.80125088 41.74225729 -3.79909747 38.8806639 -3.79443359 36.01904297 C-3.78873631 32.34337636 -3.79201546 28.66778276 -3.79800606 24.99211884 C-3.80161241 22.17494146 -3.80047275 19.35778152 -3.79787827 16.54060364 C-3.7972092 15.18496187 -3.79803671 13.82931854 -3.80035782 12.47367859 C-3.80288551 10.58206206 -3.79835264 8.69044001 -3.79345703 6.79882812 C-3.79266144 5.72040649 -3.79186584 4.64198486 -3.79104614 3.53088379 C-3.61249945 0.11511088 -3.4397715 0.13113498 0 0 Z " fill="#254657" transform="translate(133.6640625,270.8984375)"/>
<path d="M0 0 C2.12493141 -0.02693575 4.24995912 -0.04636628 6.375 -0.0625 C7.55835937 -0.07410156 8.74171875 -0.08570313 9.9609375 -0.09765625 C13 0 13 0 15 1 C15 1.66 15 2.32 15 3 C16.3303125 3.433125 16.3303125 3.433125 17.6875 3.875 C20.50382424 4.83148748 23.25083156 5.86798946 26 7 C26 7.66 26 8.32 26 9 C27.051875 9.28875 28.10375 9.5775 29.1875 9.875 C32.22818711 10.77225193 35.08712344 11.76423419 38 13 C38 13.66 38 14.32 38 15 C38.58007812 15.04898438 39.16015625 15.09796875 39.7578125 15.1484375 C45.20391548 15.66968168 50.05069769 16.52534885 55 19 C55.33 18.34 55.66 17.68 56 17 C56 17.66 56 18.32 56 19 C56.63164063 18.98839844 57.26328125 18.97679687 57.9140625 18.96484375 C63.29657859 18.91055324 68.57351395 19.0971041 73.9375 19.5625 C82.41633284 20.22330915 90.65098909 19.62341879 99 18 C99 17.34 99 16.68 99 16 C99.65226562 15.97421875 100.30453125 15.9484375 100.9765625 15.921875 C106.84304235 15.54115949 110.21680124 14.64434191 115 11 C117.375 10.25 117.375 10.25 119 10 C118.65930765 13.15140423 118.41923159 14.60781561 116.0625 16.8125 C114 18 114 18 112 18 C112 18.66 112 19.32 112 20 C111.34 20 110.68 20 110 20 C109.79375 20.7425 109.5875 21.485 109.375 22.25 C107.54153453 25.91693095 105.54916169 26.97249039 102 29 C99.36152954 29.75190979 96.92922147 30.34666287 94.25 30.8125 C93.57839844 30.94591797 92.90679687 31.07933594 92.21484375 31.21679688 C87.28212691 32.14106346 87.28212691 32.14106346 85 31 C85 31.66 85 32.32 85 33 C84.34 33 83.68 33 83 33 C83 32.34 83 31.68 83 31 C81.1746875 31.2475 81.1746875 31.2475 79.3125 31.5 C70.43690993 32.44896246 62.08182576 32.81321402 53.56640625 29.8671875 C48.80279654 28.25756595 43.88384289 27.18319905 39 26 C39 25.34 39 24.68 39 24 C36.03 23.67 33.06 23.34 30 23 C30 22.34 30 21.68 30 21 C29.175 20.938125 28.35 20.87625 27.5 20.8125 C20.17466676 19.11197621 14.20953403 13.79338407 8.19921875 9.453125 C5.97705047 7.848378 5.97705047 7.848378 3 7 C2.67 5.35 2.34 3.7 2 2 C1.34 2 0.68 2 0 2 C0 1.34 0 0.68 0 0 Z " fill="#92C847" transform="translate(64,218)"/>
<path d="M0 0 C2.63147052 1.44507873 4.39279209 2.95356543 6.3046875 5.265625 C6.0546875 8.015625 6.0546875 8.015625 5.3046875 10.265625 C1.11093738 9.91614582 -1.75451353 9.35576359 -5.3828125 7.203125 C-10.60647532 4.42328104 -15.92172537 4.46057553 -21.6953125 5.265625 C-26.8277178 7.74017756 -30.14689358 11.30246361 -32.78125 16.34375 C-34.06404154 20.44429732 -34.06366231 24.30537604 -34.0703125 28.578125 C-34.09480469 29.39474609 -34.11929688 30.21136719 -34.14453125 31.05273438 C-34.17549886 37.53012641 -32.79962268 43.06948314 -28.17675781 47.82910156 C-23.18850346 52.09565103 -19.99580029 52.62301999 -13.58984375 52.5390625 C-9.28172408 52.13208763 -6.08755036 50.96181405 -2.6953125 48.265625 C1.48576505 42.90526917 2.03554801 37.95374128 2.3046875 31.265625 C0.91443359 31.28302734 0.91443359 31.28302734 -0.50390625 31.30078125 C-1.70144531 31.30980469 -2.89898437 31.31882812 -4.1328125 31.328125 C-5.32777344 31.33972656 -6.52273437 31.35132813 -7.75390625 31.36328125 C-10.6953125 31.265625 -10.6953125 31.265625 -11.6953125 30.265625 C-11.8203125 27.765625 -11.8203125 27.765625 -11.6953125 25.265625 C-9.54519297 23.11550547 -4.79733452 24.08041855 -1.8203125 24.078125 C-0.57701172 24.05975586 -0.57701172 24.05975586 0.69140625 24.04101562 C1.88830078 24.03811523 1.88830078 24.03811523 3.109375 24.03515625 C4.20741455 24.02899292 4.20741455 24.02899292 5.32763672 24.02270508 C7.3046875 24.265625 7.3046875 24.265625 10.3046875 26.265625 C11.63471659 34.50658958 10.37819373 43.45129816 5.86328125 50.5234375 C0.96729871 56.68033433 -4.22880283 59.71646398 -12.03125 60.67578125 C-20.95289825 61.05316116 -27.64122194 59.57582344 -34.5 53.7265625 C-41.91924068 45.93820537 -44.07573365 35.35397631 -43.96875 24.9765625 C-43.36413302 16.77104632 -40.48065825 9.90844326 -34.72265625 3.9921875 C-24.40679246 -4.79319168 -12.29275818 -4.70786483 0 0 Z " fill="#2B4B5C" transform="translate(73.6953125,273.734375)"/>
<path d="M0 0 C2.97 0.99 5.94 1.98 9 3 C9 3.66 9 4.32 9 5 C11.63904371 6.41377341 14.07120629 7.37240135 17 8 C17 8.99 17 9.98 17 11 C17.99 11.33 18.98 11.66 20 12 C20 12.66 20 13.32 20 14 C20.94875 14.2475 21.8975 14.495 22.875 14.75 C26 16 26 16 27.1875 17.625 C27.455625 18.40875 27.72375 19.1925 28 20 C28.45375 21.134375 28.9075 22.26875 29.375 23.4375 C29.62636719 24.14390625 29.87773437 24.8503125 30.13671875 25.578125 C30.74696844 27.29013771 31.39980724 28.98724964 32.08203125 30.671875 C38.33007248 47.71600161 35.80668173 66.46859651 29 83 C27.46875 85.29296875 27.46875 85.29296875 26 87 C25.07820017 88.56835802 24.18197735 90.15204163 23.3125 91.75 C22.87550781 92.54921875 22.43851563 93.3484375 21.98828125 94.171875 C21.66214844 94.77515625 21.33601563 95.3784375 21 96 C20.34 96 19.68 96 19 96 C18.979375 96.721875 18.95875 97.44375 18.9375 98.1875 C17.79772236 101.60683292 16.05127597 102.95891321 13.11889648 104.96362305 C9.35061614 106.80673286 5.67083179 106.52768257 1.5625 106.3125 C0.73556641 106.28994141 -0.09136719 106.26738281 -0.94335938 106.24414062 C-2.96303577 106.18576847 -4.98176721 106.09610632 -7 106 C-7 105.01 -7 104.02 -7 103 C-3.79192446 100.61685817 -0.93619738 99.56231391 3 99 C3 98.34 3 97.68 3 97 C3.66 97 4.32 97 5 97 C5 96.34 5 95.68 5 95 C6.485 94.505 6.485 94.505 8 94 C9.22520264 90.99152582 9.22520264 90.99152582 10 88 C10.66 88 11.32 88 12 88 C12.185625 87.071875 12.185625 87.071875 12.375 86.125 C13 84 13 84 15 82 C25.97197786 65.54203321 24.55594584 49.43588589 21 31 C20.34 31 19.68 31 19 31 C18.91363281 30.33613281 18.82726562 29.67226562 18.73828125 28.98828125 C17.78008103 22.96656427 16.69723633 20.12440263 12 16 C10.96958573 14.01549844 9.96314063 12.01800895 9 10 C8.34 9.67 7.68 9.34 7 9 C7 8.34 7 7.68 7 7 C6.01 6.67 5.02 6.34 4 6 C3.66666667 4.66666667 3.33333333 3.33333333 3 2 C2.01 1.67 1.02 1.34 0 1 C0 0.67 0 0.34 0 0 Z " fill="#2A4B5B" transform="translate(169,73)"/>
<path d="M0 0 C4.55555556 0.55555556 4.55555556 0.55555556 6 2 C6.15740605 3.70563778 6.25093392 5.41727244 6.31640625 7.12890625 C6.37924805 8.68061523 6.37924805 8.68061523 6.44335938 10.26367188 C6.48267578 11.35228516 6.52199219 12.44089844 6.5625 13.5625 C6.60568359 14.65498047 6.64886719 15.74746094 6.69335938 16.87304688 C6.79982068 19.58189564 6.90183516 22.29083992 7 25 C11.92959543 20.72314226 16.78816945 16.38665755 21.5625 11.9375 C22.68698011 10.90047765 23.81197523 9.86401344 24.9375 8.828125 C26.72218588 7.18490812 28.49224587 5.53168275 30.25 3.859375 C32.0625 2.1875 32.0625 2.1875 35 0 C37.18359375 0.36328125 37.18359375 0.36328125 39 1 C39.9375 3.0625 39.9375 3.0625 40 6 C38.01195113 8.69989862 35.5229075 10.80781071 33 13 C32.37351563 13.556875 31.74703125 14.11375 31.1015625 14.6875 C29.80705981 15.82877584 28.50606387 16.96272193 27.19921875 18.08984375 C23.08029648 21.66738014 19.04760776 25.34222332 15 29 C16.31270914 31.90221328 17.71898982 33.96712292 19.9765625 36.20703125 C20.56131348 36.79049316 21.14606445 37.37395508 21.74853516 37.97509766 C22.36776855 38.58144043 22.98700195 39.1877832 23.625 39.8125 C24.25583496 40.43688965 24.88666992 41.0612793 25.53662109 41.70458984 C29.88081145 45.97736274 34.34446193 50.06787888 39 54 C41.5625 56.1875 41.5625 56.1875 43 58 C42.80984746 60.21844626 42.58477845 61.41522155 41 63 C38.14810474 63.30677994 36.57338462 63.39932831 34.18237305 61.73413086 C33.63105713 61.15026611 33.07974121 60.56640137 32.51171875 59.96484375 C31.89159912 59.32345459 31.27147949 58.68206543 30.63256836 58.02124023 C29.9906958 57.33360596 29.34882324 56.64597168 28.6875 55.9375 C27.35078919 54.55031675 26.01226769 53.16487588 24.671875 51.78125 C24.03572266 51.11996094 23.39957031 50.45867187 22.74414062 49.77734375 C20.23167966 47.21705318 17.57043271 44.87481843 14.80859375 42.58984375 C12.07586025 40.18763525 9.55817276 37.58687596 7 35 C6.98018066 35.77714355 6.96036133 36.55428711 6.93994141 37.35498047 C6.84492991 40.86200691 6.73515441 44.36841794 6.625 47.875 C6.5940625 49.09832031 6.563125 50.32164062 6.53125 51.58203125 C6.47324219 53.33193359 6.47324219 53.33193359 6.4140625 55.1171875 C6.3826416 56.19597168 6.3512207 57.27475586 6.31884766 58.38623047 C6 61 6 61 4 63 C-0.55555556 62.44444444 -0.55555556 62.44444444 -2 61 C-2.10428875 59.16972828 -2.13854374 57.33542545 -2.14526367 55.50219727 C-2.15164352 54.32750381 -2.15802338 53.15281036 -2.16459656 51.94252014 C-2.16570938 50.66340256 -2.1668222 49.38428497 -2.16796875 48.06640625 C-2.17129715 46.76299789 -2.17462555 45.45958954 -2.17805481 44.11668396 C-2.184052 41.35341565 -2.18589412 38.59017865 -2.18530273 35.8269043 C-2.18520109 32.28131527 -2.19885231 28.73592643 -2.21607494 25.19038486 C-2.22985013 21.81572201 -2.22928323 18.44109691 -2.23046875 15.06640625 C-2.23765427 13.7893129 -2.24483978 12.51221954 -2.25224304 11.19642639 C-2.24916641 10.01858078 -2.24608978 8.84073517 -2.24291992 7.62719727 C-2.24434494 6.58652603 -2.24576996 5.5458548 -2.24723816 4.47364807 C-2 2 -2 2 0 0 Z " fill="#2A4B5B" transform="translate(190,271)"/>
<path d="M0 0 C3.3 0 6.6 0 10 0 C10.33 2.31 10.66 4.62 11 7 C10.34 7 9.68 7 9 7 C9.45822468 10.46941546 9.89131683 13.67395049 11 17 C11.20854209 18.76331631 11.41413011 20.5271098 11.59521484 22.29345703 C12.7082377 32.95596589 14.52290248 43.20965336 21 52 C21 52.99 21 53.98 21 55 C21.66 55 22.32 55 23 55 C23.33773437 55.85464844 23.67546875 56.70929688 24.0234375 57.58984375 C24.46945313 58.69457031 24.91546875 59.79929688 25.375 60.9375 C25.81585938 62.03964844 26.25671875 63.14179688 26.7109375 64.27734375 C27.71041432 67.11230186 27.71041432 67.11230186 30 68 C30 68.99 30 69.98 30 71 C30.66 71 31.32 71 32 71 C32.66 72.65 33.32 74.3 34 76 C34.66 76 35.32 76 36 76 C36 76.66 36 77.32 36 78 C36.66 78 37.32 78 38 78 C38 78.99 38 79.98 38 81 C38.66 81 39.32 81 40 81 C40 81.66 40 82.32 40 83 C40.99 83.33 41.98 83.66 43 84 C43 84.66 43 85.32 43 86 C43.99 86.33 44.98 86.66 46 87 C46.6875 89.0625 46.6875 89.0625 47 91 C48.32 91.33 49.64 91.66 51 92 C36.89199614 92.76374156 36.89199614 92.76374156 31 88 C27 82.87179487 27 82.87179487 27 80 C25.515 79.505 25.515 79.505 24 79 C21.92469613 76.07920195 21 74.62453269 21 71 C19.515 70.505 19.515 70.505 18 70 C17.67 67.69 17.34 65.38 17 63 C15.515 63.495 15.515 63.495 14 64 C13.39465846 62.50047375 12.7908025 61.00034778 12.1875 59.5 C11.82140625 58.59121094 11.4553125 57.68242187 11.078125 56.74609375 C10.14373171 54.36609924 9.28216125 51.97517601 8.4375 49.5625 C7.33464296 46.11608017 7.33464296 46.11608017 5.4777832 44.56103516 C3.59250063 42.56954387 3.37347818 41.14744172 2.91796875 38.4609375 C2.76247559 37.57245117 2.60698242 36.68396484 2.44677734 35.76855469 C2.29934082 34.85493164 2.1519043 33.94130859 2 33 C1.77691162 31.71851074 1.77691162 31.71851074 1.54931641 30.41113281 C-0.22053035 20.02195397 -1.53858698 10.49036577 0 0 Z " fill="#92C847" transform="translate(24,125)"/>
<path d="M0 0 C1.11431396 0.00410889 2.22862793 0.00821777 3.37670898 0.01245117 C4.58391602 0.01438477 5.79112305 0.01631836 7.03491211 0.01831055 C8.30141602 0.03055664 9.56791992 0.04280273 10.87280273 0.05541992 C12.77835938 0.05638672 12.77835938 0.05638672 14.72241211 0.05737305 C24.1702022 0.10281939 24.1702022 0.10281939 25.31030273 1.24291992 C25.43530273 3.74291992 25.43530273 3.74291992 25.31030273 6.24291992 C24.31030273 7.24291992 24.31030273 7.24291992 22.26904297 7.35644531 C21.39449463 7.3512085 20.51994629 7.34597168 19.61889648 7.34057617 C18.6746582 7.33735352 17.73041992 7.33413086 16.75756836 7.33081055 C15.7643457 7.32243164 14.77112305 7.31405273 13.74780273 7.30541992 C12.75071289 7.3009082 11.75362305 7.29639648 10.72631836 7.29174805 C8.25428787 7.27992015 5.78228801 7.26198408 3.31030273 7.24291992 C3.31030273 13.84291992 3.31030273 20.44291992 3.31030273 27.24291992 C9.14408964 27.2033925 9.14408964 27.2033925 14.9777832 27.15283203 C16.06663818 27.14908569 16.06663818 27.14908569 17.17749023 27.14526367 C18.29293213 27.13740845 18.29293213 27.13740845 19.4309082 27.12939453 C21.31030273 27.24291992 21.31030273 27.24291992 23.31030273 28.24291992 C23.31030273 30.22291992 23.31030273 32.20291992 23.31030273 34.24291992 C21.01376574 35.39118842 19.72717106 35.35853167 17.17749023 35.34057617 C16.45158691 35.33807861 15.72568359 35.33558105 14.9777832 35.33300781 C13.59550537 35.31935181 13.59550537 35.31935181 12.18530273 35.30541992 C9.25655273 35.28479492 6.32780273 35.26416992 3.31030273 35.24291992 C3.31030273 41.51291992 3.31030273 47.78291992 3.31030273 54.24291992 C4.73084961 54.2197168 6.15139648 54.19651367 7.61499023 54.17260742 C9.47175583 54.15385221 11.32852708 54.13565175 13.18530273 54.11791992 C14.12245117 54.10116211 15.05959961 54.0844043 16.02514648 54.06713867 C16.92104492 54.06069336 17.81694336 54.05424805 18.73999023 54.04760742 C19.56740723 54.03713379 20.39482422 54.02666016 21.24731445 54.01586914 C23.31030273 54.24291992 23.31030273 54.24291992 25.31030273 56.24291992 C24.75474718 60.79847548 24.75474718 60.79847548 23.31030273 62.24291992 C19.00382637 62.49634228 14.68585219 62.42814631 10.37280273 62.43041992 C9.15399414 62.44266602 7.93518555 62.45491211 6.67944336 62.4675293 C4.93630859 62.47042969 4.93630859 62.47042969 3.15795898 62.47338867 C1.54932983 62.479552 1.54932983 62.479552 -0.09179688 62.48583984 C-2.68969727 62.24291992 -2.68969727 62.24291992 -4.68969727 60.24291992 C-4.94366455 57.81396484 -4.94366455 57.81396484 -4.94848633 54.72338867 C-4.95479065 53.5687915 -4.96109497 52.41419434 -4.96759033 51.22460938 C-4.96354187 49.97252686 -4.95949341 48.72044434 -4.95532227 47.43041992 C-4.95723572 46.15062256 -4.95914917 44.8708252 -4.96112061 43.55224609 C-4.96407108 40.84199199 -4.95977682 38.13186966 -4.95043945 35.42163086 C-4.93904479 31.94442762 -4.94560469 28.4675331 -4.95758438 24.99034119 C-4.96654152 21.67867588 -4.96027362 18.36709401 -4.95532227 15.05541992 C-4.95937073 13.8033374 -4.96341919 12.55125488 -4.96759033 11.26123047 C-4.96128601 10.1066333 -4.95498169 8.95203613 -4.94848633 7.76245117 C-4.94689514 6.74256104 -4.94530396 5.7226709 -4.94366455 4.671875 C-4.56866182 1.08533123 -3.54836361 0.32047035 0 0 Z " fill="#2D4D5D" transform="translate(95.689697265625,271.757080078125)"/>
<path d="M0 0 C2.05078125 1.0703125 2.05078125 1.0703125 5.05078125 3.0703125 C5.05078125 3.7303125 5.05078125 4.3903125 5.05078125 5.0703125 C5.71078125 5.0703125 6.37078125 5.0703125 7.05078125 5.0703125 C12.00201539 19.45246882 12.00201539 19.45246882 8.61328125 26.8828125 C6.28613947 30.47631411 3.4722726 31.62640824 -0.58203125 32.703125 C-6.9140987 33.68532688 -12.34304231 31.92836323 -17.94921875 29.0703125 C-19.88671875 27.5703125 -19.88671875 27.5703125 -20.94921875 26.0703125 C-20.94921875 25.0803125 -20.94921875 24.0903125 -20.94921875 23.0703125 C-21.93921875 22.7403125 -22.92921875 22.4103125 -23.94921875 22.0703125 C-24.79376231 18.69213825 -25.05766794 16.39566007 -23.94921875 13.0703125 C-24.60921875 12.7403125 -25.26921875 12.4103125 -25.94921875 12.0703125 C-25.28921875 12.0703125 -24.62921875 12.0703125 -23.94921875 12.0703125 C-24.04203125 11.0184375 -24.04203125 11.0184375 -24.13671875 9.9453125 C-23.89095905 6.17699713 -23.08336678 4.20484242 -20.94921875 1.0703125 C-13.63850059 -4.17468397 -7.88064227 -3.6749109 0 0 Z " fill="#FEC113" transform="translate(135.94921875,113.9296875)"/>
<path d="M0 0 C1.32 0.33 2.64 0.66 4 1 C4 2.32 4 3.64 4 5 C5.65 5.33 7.3 5.66 9 6 C9 6.99 9 7.98 9 9 C10.65 9 12.3 9 14 9 C14 9.66 14 10.32 14 11 C15.65 11 17.3 11 19 11 C19 11.66 19 12.32 19 13 C19.99 13.33 20.98 13.66 22 14 C22 14.66 22 15.32 22 16 C23.65 16.33 25.3 16.66 27 17 C27 17.66 27 18.32 27 19 C27.99 19 28.98 19 30 19 C30 19.66 30 20.32 30 21 C31.32 21.33 32.64 21.66 34 22 C34 22.66 34 23.32 34 24 C34.969375 24.103125 35.93875 24.20625 36.9375 24.3125 C40.78387077 24.84411222 44.25581068 26.03102031 47.88671875 27.37890625 C50.27250449 28.18798286 50.27250449 28.18798286 54 28 C54 28.66 54 29.32 54 30 C55.051875 29.62875 56.10375 29.2575 57.1875 28.875 C61.18632214 27.95723754 62.49128216 28.08615391 66 30 C66 29.34 66 28.68 66 28 C66.71285156 27.87882812 67.42570312 27.75765625 68.16015625 27.6328125 C69.11792969 27.46523437 70.07570313 27.29765625 71.0625 27.125 C72.00222656 26.96257812 72.94195312 26.80015625 73.91015625 26.6328125 C77.07481102 26.04578056 77.07481102 26.04578056 80.34375 24.90625 C84.60937067 23.84895941 88.10469067 23.97858561 92.4375 24.375 C93.53481445 24.46007812 93.53481445 24.46007812 94.65429688 24.546875 C96.43711286 24.6867037 98.21872382 24.84175938 100 25 C97.375 28.875 97.375 28.875 94 30 C93.67 30.66 93.34 31.32 93 32 C90.8203125 32.78125 90.8203125 32.78125 88.125 33.5 C84.84478965 34.37982318 82.87188369 35.08541088 80 37 C78.01604265 37.28342248 76.03038313 37.56553223 74.03515625 37.75390625 C72.00748324 37.95135979 72.00748324 37.95135979 70.11474609 38.50048828 C59.12342493 41.09668351 47.2952714 39.0744537 37 35 C37 34.34 37 33.68 37 33 C36.39671875 32.90203125 35.7934375 32.8040625 35.171875 32.703125 C30.181814 31.76950068 27.36802208 31.01571863 24 27 C23.01 26.67 22.02 26.34 21 26 C21 25.34 21 24.68 21 24 C20.34 24 19.68 24 19 24 C17.31237149 22.3545622 15.6459651 20.68711423 14 19 C13.34 18.67 12.68 18.34 12 18 C12 17.34 12 16.68 12 16 C11.01 15.67 10.02 15.34 9 15 C7.3125 13.625 7.3125 13.625 6 12 C6 11.01 6 10.02 6 9 C5.34 9 4.68 9 4 9 C4 8.01 4 7.02 4 6 C3.34 6 2.68 6 2 6 C1.34 4.02 0.68 2.04 0 0 Z " fill="#2D4D5D" transform="translate(73,158)"/>
<path d="M0 0 C1 2 1 2 0.2578125 4.46875 C-0.11601563 5.4690625 -0.48984375 6.469375 -0.875 7.5 C-3.3320992 14.58322391 -4.08499202 21.04494898 -3.9375 28.5 C-4 32 -4 32 -6 34 C-6.33 34.66 -6.66 35.32 -7 36 C-10.3 36 -13.6 36 -17 36 C-16.01 35.505 -16.01 35.505 -15 35 C-15.495 33.515 -15.495 33.515 -16 32 C-15.29296875 29.3359375 -15.29296875 29.3359375 -14.1875 26.375 C-13.83042969 25.39273438 -13.47335938 24.41046875 -13.10546875 23.3984375 C-12 21 -12 21 -10 20 C-9.64080332 18.33871537 -9.31088368 16.67099977 -9 15 C-8.34870203 13.65909241 -7.68486725 12.32407669 -7 11 C-7 10.34 -7 9.68 -7 9 C-5.625 7.375 -5.625 7.375 -4 6 C-3.34 6 -2.68 6 -2 6 C-1.855625 5.195625 -1.71125 4.39125 -1.5625 3.5625 C-1 1 -1 1 0 0 Z " fill="#345363" transform="translate(65,73)"/>
<path d="M0 0 C0 4.29 0 8.58 0 13 C-7.32215357 13.36010591 -7.32215357 13.36010591 -10 11.9375 C-11.58433618 8.86784865 -11.36248449 6.38318857 -11 3 C-8.76467814 -1.3309361 -4.26119511 -0.20956697 0 0 Z " fill="#43606E" transform="translate(210,33)"/>
<path d="M0 0 C0.66 0 1.32 0 2 0 C2 5.94 2 11.88 2 18 C-5 18 -5 18 -6.9375 16.9375 C-8.6140629 13.88023824 -8.36528977 11.4093712 -8 8 C-6.75 6.0625 -6.75 6.0625 -5 5 C-3.68 5 -2.36 5 -1 5 C-0.67 3.35 -0.34 1.7 0 0 Z " fill="#4C6775" transform="translate(229,28)"/>
<path d="M0 0 C3.625 0.375 3.625 0.375 7 1 C7 1.66 7 2.32 7 3 C4.69 3 2.38 3 0 3 C0.71639199 6.28843538 0.71639199 6.28843538 4 7.625 C4.99 8.07875 5.98 8.5325 7 9 C8 10 8 10 8.25 12.375 C8 15 8 15 6.875 16.8125 C4.22464043 18.49106106 2.06753576 18.20450238 -1 18 C-1.33 17.01 -1.66 16.02 -2 15 C-0.02 15 1.96 15 4 15 C4.33 13.35 4.66 11.7 5 10 C4.236875 9.896875 3.47375 9.79375 2.6875 9.6875 C-0.19700648 8.94960299 -1.35495989 8.46756016 -3 6 C-2.72963853 3.02602384 -2.14553974 2.14553974 0 0 Z " fill="#3B5968" transform="translate(166,28)"/>
<path d="M0 0 C1.67542976 0.28604898 3.34385343 0.61781233 5 1 C5.625 3.3125 5.625 3.3125 6 6 C5.01 7.485 5.01 7.485 4 9 C0.125 8.125 0.125 8.125 -1 7 C-1.125 4 -1.125 4 -1 1 C-0.67 0.67 -0.34 0.34 0 0 Z " fill="#F2F4F5" transform="translate(202,35)"/>
<path d="M0 0 C1.67542976 0.28604898 3.34385343 0.61781233 5 1 C5 2.98 5 4.96 5 7 C3.02 7.99 3.02 7.99 1 9 C-1 7 -1 7 -1.1875 3.9375 C-1 1 -1 1 0 0 Z " fill="#FAFAFB" transform="translate(224,35)"/>
<path d="M0 0 C0.66 0 1.32 0 2 0 C2 1.32 2 2.64 2 4 C2.66 4 3.32 4 4 4 C4 4.66 4 5.32 4 6 C3.34 6 2.68 6 2 6 C2 9.63 2 13.26 2 17 C1.34 17 0.68 17 0 17 C-0.19561869 14.9174133 -0.38119313 12.83388144 -0.5625 10.75 C-0.66691406 9.58984375 -0.77132812 8.4296875 -0.87890625 7.234375 C-0.98198087 4.48128523 -0.86213473 2.580018 0 0 Z " fill="#375665" transform="translate(185,29)"/>
<path d="M0 0 C1.32 0.33 2.64 0.66 4 1 C4 2.32 4 3.64 4 5 C5.65 5.33 7.3 5.66 9 6 C9 6.99 9 7.98 9 9 C8.34 9 7.68 9 7 9 C6.67 9.99 6.34 10.98 6 12 C6 11.01 6 10.02 6 9 C5.34 9 4.68 9 4 9 C4 8.01 4 7.02 4 6 C3.34 6 2.68 6 2 6 C1.34 4.02 0.68 2.04 0 0 Z " fill="#718791" transform="translate(73,158)"/>
<path d="M0 0 C1.32 0 2.64 0 4 0 C4 0.99 4 1.98 4 3 C2.35 3.33 0.7 3.66 -1 4 C-1 4.66 -1 5.32 -1 6 C-3.31 7.32 -5.62 8.64 -8 10 C-8 9.01 -8 8.02 -8 7 C-7.38125 6.731875 -6.7625 6.46375 -6.125 6.1875 C-3.7004767 5.04443152 -3.7004767 5.04443152 -2 2 C-1.34 1.34 -0.68 0.68 0 0 Z " fill="#516C79" transform="translate(151,162)"/>
<path d="M0 0 C0 2.64 0 5.28 0 8 C-0.226875 7.360625 -0.45375 6.72125 -0.6875 6.0625 C-1.85250896 3.72806339 -1.85250896 3.72806339 -4.625 3.25 C-5.40875 3.1675 -6.1925 3.085 -7 3 C-7.33 4.65 -7.66 6.3 -8 8 C-9.0625 6.1875 -9.0625 6.1875 -10 4 C-9.67 3.01 -9.34 2.02 -9 1 C-6.04335481 -0.4783226 -3.25770263 -0.06032783 0 0 Z " fill="#385666" transform="translate(209,33)"/>
<path d="M0 0 C3.625 0.375 3.625 0.375 7 1 C7 1.66 7 2.32 7 3 C5.72125 3.12375 4.4425 3.2475 3.125 3.375 C-0.34790936 3.69042399 -0.34790936 3.69042399 -3 6 C-2.42655063 3.13275314 -2.1385485 2.1385485 0 0 Z " fill="#57717E" transform="translate(166,28)"/>
<path d="M0 0 C0.66 0 1.32 0 2 0 C2 4.29 2 8.58 2 13 C-0.58540981 7.82918037 -1.11867023 5.59335113 0 0 Z " fill="#395867" transform="translate(229,28)"/>
<path d="M0 0 C0.66 0 1.32 0 2 0 C1.34 1.32 0.68 2.64 0 4 C-1.98 4 -3.96 4 -6 4 C-6.33 3.01 -6.66 2.02 -7 1 C-5.5459375 1.0309375 -5.5459375 1.0309375 -4.0625 1.0625 C-1.12534105 1.35618499 -1.12534105 1.35618499 0 0 Z " fill="#44606F" transform="translate(171,42)"/>
</svg>
